<svg xmlns="http://www.w3.org/2000/svg" viewBox="0 0 531.57 280" width="531.57" height="280"><path fill="#ECE5DB" fill-rule="evenodd" d="M13.36 10L65.76 10.84L111.47 178.55L158.84 10L206.64 10L208.33 11.67L254.87 177.71L300.98 11.67L302.24 10L355.07 10L354.24 19.22L283.8 268.28L282.11 269.96L226.77 269.96L225.09 267.86L181.91 116.5L139.14 269.53L83.37 269.96L10 14.19L10.42 10.42L13.36 10.42ZM367.65 10L521.53 10.84L521.11 92.6L474.57 92.6L472.89 59.47L365.56 59.47L365.56 220.48L472.89 220.91L473.31 165.56L419.22 165.56L418.81 117.33L521.11 116.92L520.69 269.96L316.92 269.53L316.92 186.1L367.65 10.42Z"></path></svg>