<svg xmlns="http://www.w3.org/2000/svg" viewBox="0 0 1200 420" role="img" aria-labelledby="title desc">
  <title id="title">Wasilla Gravel dump bed logo concept</title>
  <desc id="desc">Bold dump-bed and gravel mark with wordmark.</desc>
  <rect width="1200" height="420" fill="#f3efe7" />
  <g transform="translate(78 88)">
    <rect x="24" y="180" width="160" height="24" rx="8" fill="#1f2529" />
    <rect x="194" y="180" width="44" height="24" rx="8" fill="#1f2529" />
    <circle cx="74" cy="222" r="28" fill="#1f2529" />
    <circle cx="200" cy="222" r="28" fill="#1f2529" />
    <path d="M58 48h170l32 82H88z" fill="#9a1f1f" />
    <path d="M72 139l38 41h112l36-25-18-18z" fill="#c08b3e" />
    <circle cx="108" cy="184" r="9" fill="#8a8178" />
    <circle cx="132" cy="193" r="10" fill="#8a8178" />
    <circle cx="158" cy="183" r="8" fill="#8a8178" />
    <circle cx="184" cy="194" r="10" fill="#8a8178" />
    <circle cx="208" cy="182" r="8" fill="#8a8178" />
  </g>
  <text x="410" y="180" font-family="Arial Black, Arial, sans-serif" font-size="118" letter-spacing="5" fill="#1f2529">WASILLA</text>
  <text x="410" y="290" font-family="Arial Black, Arial, sans-serif" font-size="118" letter-spacing="5" fill="#1f2529">GRAVEL</text>
  <rect x="412" y="315" width="486" height="15" fill="#9a1f1f" />
  <text x="920" y="330" font-family="Arial, sans-serif" font-size="28" letter-spacing="4" fill="#57534e">GRAVEL DELIVERY</text>
</svg>
